<svg xmlns="http://www.w3.org/2000/svg" width="64" height="47" viewBox="0 0 64 47">
  <path id="蓝狐_反白_64px" data-name="蓝狐（反白）64px" d="M15.515,47a16.456,16.456,0,0,1-3.225-.318c-.227-.077-.455-.156-.677-.236,0,.028,0,.057,0,.085l.129.031a15.858,15.858,0,0,1-4.657-1.919,15.3,15.3,0,0,1-3.732-3.214,14.436,14.436,0,0,1-2.464-4.21,14.055,14.055,0,0,1,1.787-13.17A15.1,15.1,0,0,1,5.7,20.92a15.694,15.694,0,0,1,3.863-2.194,14.116,14.116,0,0,1,.661-9.7,14.707,14.707,0,0,1,3.342-4.7,15.615,15.615,0,0,1,4.956-3.166A16.24,16.24,0,0,1,24.591,0a16.523,16.523,0,0,1,3.394.351,16.11,16.11,0,0,1,3.135,1,15.82,15.82,0,0,1,2.8,1.579A15.426,15.426,0,0,1,36.3,5.012,16.388,16.388,0,0,1,50.52,3.993a15.615,15.615,0,0,1,4.956,3.166,14.708,14.708,0,0,1,3.342,4.7,14.019,14.019,0,0,1,1.225,5.751,14.181,14.181,0,0,1-.149,2.049,16.407,16.407,0,0,1,3.013,4.906A15.818,15.818,0,0,1,64,30.351a16.128,16.128,0,0,1-4.671,11.3,17.741,17.741,0,0,1-7.657,4.591,13.738,13.738,0,0,0-.059-7.529,13.52,13.52,0,0,0-1.623-3.522,14.265,14.265,0,0,0-2.707-3.077,4.983,4.983,0,0,0-.5-.358c-.1-.065-.2-.133-.317-.212.771,3.11.78,5.449.028,7.362-.778,1.978-2.39,3.579-5.075,5.04a41.076,41.076,0,0,1-6.954,3.014l-18.028.01C16.136,46.991,15.826,47,15.515,47ZM26.476,6.733c-.211.319-.4.613-.617.937l-.075.115c-.444.676-.827,1.261-1.237,1.857-.273.4-.537.82-.792,1.228l-.023.036-.008.012a15.134,15.134,0,0,1-2.074,2.814A19.714,19.714,0,0,0,18.221,18.2,18.008,18.008,0,0,0,16.4,23.053,26.335,26.335,0,0,0,16.523,33.7c.45,2.375.834,4.767,1.206,7.081l0,.016.015.1.007.046c.169,1.048.343,2.132.524,3.214a7.167,7.167,0,0,0,1.654-3,13.8,13.8,0,0,0,.447-3.375c.037-1.169.015-2.358-.006-3.508v-.025c-.028-1.481-.056-3.012.039-4.518a11.076,11.076,0,0,1,.181-1.425c-.435,4.253,1.736,7.4,5.668,8.214a30.566,30.566,0,0,0,3.771.455c.586.046,1.191.094,1.783.157a11.309,11.309,0,0,1,2.439.474,3.68,3.68,0,0,1,1.537.926,3.553,3.553,0,0,1,.818,1.571,10.59,10.59,0,0,1,.284,2.411,4.367,4.367,0,0,0,.062.555c.013.082.026.166.036.247a9.565,9.565,0,0,0,2.9-.563,9.781,9.781,0,0,0,2.545-1.37,9.421,9.421,0,0,0,2-2.026A8.606,8.606,0,0,0,45.7,36.82a7.182,7.182,0,0,0-.1-4.645,7.848,7.848,0,0,0-3.019-3.713,7.6,7.6,0,0,0-4.407-1.3,11.8,11.8,0,0,0-1.773.143c-.415.063-.837.133-1.245.2a31.494,31.494,0,0,1-4.29.506l-.148,0a8.112,8.112,0,0,1-3.353-.788,2.778,2.778,0,0,1-1.728-1.905,2.252,2.252,0,0,1,.155-1.262,4.149,4.149,0,0,1,.9-1.309,9.115,9.115,0,0,1,.77-.677c.118-.1.239-.195.362-.3a12.148,12.148,0,0,1,1.261-.083c.227,0,.444-.005.663-.005.63,0,1.281.013,1.856.024l.12,0h.03l.1,0c.611.012,1.243.024,1.864.024.44,0,.849-.006,1.251-.019a9.358,9.358,0,0,0,2.952-.546c.649-.246,1.01-.549,1.1-.927.1-.422-.13-.945-.718-1.6a8.845,8.845,0,0,0-1.241-1.055l-.005,0a11.937,11.937,0,0,1-2.092-1.878,7.459,7.459,0,0,1-.885-1.483l0,0v0l0-.005a6.211,6.211,0,0,0-.635-1.1,4.457,4.457,0,0,0-1.116-.892,8.434,8.434,0,0,0-1.258-.532c-.412-.149-.785-.275-1.114-.387l-.044-.015h0a5,5,0,0,1-2.418-1.246,7.286,7.286,0,0,1-1.015-3.313Zm3,1.1C28.8,8,27.836,9.355,27.827,9.369a3.12,3.12,0,0,0,1.693,1.023A6.385,6.385,0,0,0,29.473,7.837Zm3.326,8.31h0l-2.775-.8a2.5,2.5,0,0,1,1.224-.381,1.543,1.543,0,0,1,1.2.592,2.184,2.184,0,0,1,.348.589v0Z" fill="#fff"/>
</svg>
