<svg xmlns="http://www.w3.org/2000/svg" xmlns:xlink="http://www.w3.org/1999/xlink" width="64" height="48.272" viewBox="0 0 64 48.272">
  <defs>
    <linearGradient id="linear-gradient" x1="0.5" x2="0.5" y2="1" gradientUnits="objectBoundingBox">
      <stop offset="0" stop-color="#59c9f7"/>
      <stop offset="1" stop-color="#3e92da"/>
    </linearGradient>
    <linearGradient id="linear-gradient-3" x1="0.952" y1="0.042" x2="0.041" y2="1" gradientUnits="objectBoundingBox">
      <stop offset="0" stop-color="#4fdff9" stop-opacity="0.306"/>
      <stop offset="0.488" stop-color="#47d4f8"/>
      <stop offset="1" stop-color="#3ec8f6" stop-opacity="0.616"/>
    </linearGradient>
    <linearGradient id="linear-gradient-4" x1="0.95" y1="0.038" x2="0.054" y2="0.948" gradientUnits="objectBoundingBox">
      <stop offset="0" stop-color="#0869b8"/>
      <stop offset="1" stop-color="#0963b7" stop-opacity="0.114"/>
    </linearGradient>
    <linearGradient id="linear-gradient-5" x1="0.654" y1="0.92" x2="0.56" y2="0.419" gradientUnits="objectBoundingBox">
      <stop offset="0" stop-color="#59c9f7" stop-opacity="0.776"/>
      <stop offset="1" stop-color="#3e92da" stop-opacity="0"/>
    </linearGradient>
    <linearGradient id="linear-gradient-7" x1="0.902" y1="0.055" x2="0.075" y2="1" gradientUnits="objectBoundingBox">
      <stop offset="0" stop-color="#4acbff" stop-opacity="0.455"/>
      <stop offset="1" stop-color="#4fa0e5"/>
    </linearGradient>
    <linearGradient id="linear-gradient-8" x1="0.05" y1="0.962" x2="0.946" y2="0.052" xlink:href="#linear-gradient-4"/>
    <clipPath id="clip-path">
      <path id="联合_10" data-name="联合 10" d="M45.18,47.958l-28.743.016q-.458.026-.922.026A15.269,15.269,0,0,1,0,32.99,15.02,15.02,0,0,1,9.563,19.125,14.645,14.645,0,0,1,9,15.088,15.347,15.347,0,0,1,24.591,0,15.783,15.783,0,0,1,36.3,5.118a15.908,15.908,0,0,1,8.155-2.226A15.347,15.347,0,0,1,60.044,17.98a14.741,14.741,0,0,1-.149,2.093A16.611,16.611,0,0,1,64,31c0,9.391-7.867,17-17.571,17Q45.8,48,45.18,47.958Z" fill="url(#linear-gradient)"/>
    </clipPath>
    <linearGradient id="linear-gradient-9" x1="0.354" y1="0.111" x2="0.232" y2="0.927" gradientUnits="objectBoundingBox">
      <stop offset="0" stop-color="#b7e4fd"/>
      <stop offset="0.231" stop-color="#fff"/>
      <stop offset="0.582" stop-color="#b7e4fd"/>
      <stop offset="1" stop-color="#fff"/>
    </linearGradient>
    <linearGradient id="linear-gradient-10" x1="0.783" y1="0.038" x2="0" y2="0.927" gradientUnits="objectBoundingBox">
      <stop offset="0" stop-color="#82cef3"/>
      <stop offset="1" stop-color="#7dccf3" stop-opacity="0"/>
    </linearGradient>
  </defs>
  <g id="蓝狐64px" transform="translate(23985 -4663)">
    <g id="组_3272" data-name="组 3272" transform="translate(-23985 4663)">
      <g id="组_228" data-name="组 228" transform="translate(0 0)">
        <path id="联合_10-2" data-name="联合 10" d="M45.18,47.958l-28.743.016q-.458.026-.922.026A15.269,15.269,0,0,1,0,32.99,15.02,15.02,0,0,1,9.563,19.125,14.645,14.645,0,0,1,9,15.088,15.347,15.347,0,0,1,24.591,0,15.783,15.783,0,0,1,36.3,5.118a15.908,15.908,0,0,1,8.155-2.226A15.347,15.347,0,0,1,60.044,17.98a14.741,14.741,0,0,1-.149,2.093A16.611,16.611,0,0,1,64,31c0,9.391-7.867,17-17.571,17Q45.8,48,45.18,47.958Z" fill="url(#linear-gradient)"/>
        <g id="组_213" data-name="组 213" transform="translate(38.506 3.86)" opacity="0.997">
          <path id="路径_1197" data-name="路径 1197" d="M1146.9,312s-1.322,10.726-11.9,26.007c0,0,10.206-13.5,13.016-25.581Z" transform="translate(-1135 -312)" fill="url(#linear-gradient-3)"/>
          <path id="路径_1198" data-name="路径 1198" d="M1144.407,312a81.432,81.432,0,0,1-12.825,25.614,119.444,119.444,0,0,0,8.337-13.048,76.532,76.532,0,0,0,5.3-12.14Z" transform="translate(-1131.425 -311.46)" opacity="0.48" fill="url(#linear-gradient-4)"/>
        </g>
      </g>
      <path id="联合_40" data-name="联合 40" d="M45.18,47.958l-28.743.016q-.458.026-.922.026A15.269,15.269,0,0,1,0,32.99,15.02,15.02,0,0,1,9.563,19.125,14.645,14.645,0,0,1,9,15.088,15.347,15.347,0,0,1,24.591,0,15.783,15.783,0,0,1,36.3,5.118a15.908,15.908,0,0,1,8.155-2.226A15.347,15.347,0,0,1,60.044,17.98a14.741,14.741,0,0,1-.149,2.093A16.611,16.611,0,0,1,64,31c0,9.391-7.867,17-17.571,17Q45.8,48,45.18,47.958Z" fill="url(#linear-gradient-5)"/>
      <g id="组_3271" data-name="组 3271" transform="translate(0 0)">
        <path id="联合_28" data-name="联合 28" d="M45.18,47.958l-28.743.016q-.458.026-.922.026A15.269,15.269,0,0,1,0,32.99,15.02,15.02,0,0,1,9.563,19.125,14.645,14.645,0,0,1,9,15.088,15.347,15.347,0,0,1,24.591,0,15.783,15.783,0,0,1,36.3,5.118a15.908,15.908,0,0,1,8.155-2.226A15.347,15.347,0,0,1,60.044,17.98a14.741,14.741,0,0,1-.149,2.093A16.611,16.611,0,0,1,64,31c0,9.391-7.867,17-17.571,17Q45.8,48,45.18,47.958Z" fill="url(#linear-gradient-5)"/>
        <g id="组_214" data-name="组 214" transform="translate(14.272 27.088)" opacity="0.997">
          <path id="路径_1197-2" data-name="路径 1197" d="M1135.9,334.024s1.1-8.605,9.21-20.754c0,0-7.837,10.869-10.113,20.653Z" transform="translate(-1134.369 -312.84)" fill="url(#linear-gradient-7)"/>
          <path id="路径_1198-2" data-name="路径 1198" d="M1132.2,333.134a65.356,65.356,0,0,1,3.417-9.269A59.743,59.743,0,0,1,1142.628,312a78.677,78.677,0,0,0-6.841,10.4,71.553,71.553,0,0,0-4.205,10.735Z" transform="translate(-1131.582 -312)" opacity="0.851" fill="url(#linear-gradient-8)"/>
        </g>
      </g>
    </g>
    <g id="蒙版组_10" data-name="蒙版组 10" transform="translate(-23985 4663)" clip-path="url(#clip-path)">
      <g id="组_223" data-name="组 223" transform="translate(12.111 7.245)">
        <g id="组_222" data-name="组 222" transform="translate(0 0)">
          <path id="联合_20" data-name="联合 20" d="M13.91,53.946A16.965,16.965,0,0,1,3.751,49.715,11.507,11.507,0,0,1,0,40.813c10.621,3.845,20.678,2.71,30.247-2.564,5.4-2.975,6.629-6.59,5.122-12.746.343.24.606.392.83.586,7.344,6.361,6.406,17.748-2,23.3A29.115,29.115,0,0,1,17.8,54.15,38.037,38.037,0,0,1,13.91,53.946ZM6.765,38.459c-.186-1.128-.365-2.258-.539-3.35l-.016-.1,0-.016c-.4-2.507-.774-4.876-1.224-7.278a27.4,27.4,0,0,1-.129-10.944,18.677,18.677,0,0,1,1.851-4.986,20.212,20.212,0,0,1,3.48-4.592A15.6,15.6,0,0,0,12.291,4.3L12.3,4.29c.266-.431.541-.877.827-1.3.414-.611.8-1.213,1.255-1.91l.076-.118c.2-.307.4-.623.626-.964a7.573,7.573,0,0,0,1.03,3.405A5.063,5.063,0,0,0,18.57,4.686c.347.119.739.254,1.175.414a8.529,8.529,0,0,1,1.277.547,4.524,4.524,0,0,1,1.133.917A6.443,6.443,0,0,1,22.8,7.7v0a7.687,7.687,0,0,0,.9,1.527,12.213,12.213,0,0,0,2.123,1.931,9.025,9.025,0,0,1,1.265,1.087c.6.672.834,1.209.728,1.643-.095.388-.461.7-1.12.953a9.4,9.4,0,0,1-3,.561c-.392.013-.807.02-1.269.02-.663,0-1.338-.014-1.99-.027h-.031c-.62-.013-1.322-.027-2-.027-.237,0-.457,0-.673.005a12.228,12.228,0,0,0-1.28.086c-.42.36-.813.654-1.149,1-1.662,1.725-1.455,3.571.683,4.6a8.046,8.046,0,0,0,3.552.807,44.262,44.262,0,0,0,5.617-.726,8.331,8.331,0,0,1,6.271,1.189,7.508,7.508,0,0,1,3.164,8.588,9.668,9.668,0,0,1-8.836,6.672c-.034-.27-.092-.547-.1-.825-.107-3.967-1.159-5.1-5.154-5.531-1.881-.2-3.794-.243-5.636-.628a8.53,8.53,0,0,1-1.223-.351c.048,1.5-.12,4.193-1.747,5.588a20.363,20.363,0,0,0-.028-6.538c-2.059-1.515-3.063-4.06-2.754-7.136a11.478,11.478,0,0,0-.184,1.46c-.1,1.543-.068,3.119-.04,4.643.022,1.19.045,2.421.007,3.631a14.281,14.281,0,0,1-.454,3.469,7.388,7.388,0,0,1-1.678,3.086h0Zm13.161-30a2.512,2.512,0,0,0-1.243.392l2.816.824a2.212,2.212,0,0,0-.354-.608,1.56,1.56,0,0,0-1.22-.608h0Z" transform="translate(0 0)" stroke="rgba(0,0,0,0)" stroke-miterlimit="10" stroke-width="1" fill="url(#linear-gradient-9)"/>
          <path id="路径_1159" data-name="路径 1159" d="M622.205,417.573s-1.287,1.708-6.425,1.26c0,0-5.377-.536-8.139.948a9.172,9.172,0,0,0-4.06,7.46s.028,1.213,0,2.728c-.022,1.178-.111,2.552,0,4.017,0,0,.1,5.52-2.3,7.921l-.464-2.819a16.164,16.164,0,0,0,.944-5.1s-.037-2.093,0-4.8a29.134,29.134,0,0,1,.711-5.957,8.4,8.4,0,0,1,4.329-4.6,15.988,15.988,0,0,1,7.68-.96S619.13,418.44,622.205,417.573Z" transform="translate(-594.687 -403.204)" fill="url(#linear-gradient-10)"/>
          <path id="路径_1158" data-name="路径 1158" d="M.637,2.547A6.587,6.587,0,0,1,0,0,3.145,3.145,0,0,1,1.911.637S1.274,2.229.637,2.547Z" transform="translate(18.172 3.76) rotate(-167)" fill="#90d4fc"/>
        </g>
      </g>
    </g>
  </g>
</svg>
