<svg xmlns="http://www.w3.org/2000/svg" xmlns:xlink="http://www.w3.org/1999/xlink" width="128" height="124.136" viewBox="0 0 128 124.136">
  <defs>
    <clipPath id="clip-path">
      <path id="路径_2122" data-name="路径 2122" d="M79.612-37.333a3.1,3.1,0,0,1,3.082,2.741l.021.362h0v21.723h40.344a3.1,3.1,0,0,1,3.082,2.741l.021.362h0V24.734a3.1,3.1,0,0,1-2.741,3.082l-.362.021h-4.047L128,79.53a6.207,6.207,0,0,1-6.114,7.271l-29.583,0,0-.051V49.508a3.385,3.385,0,0,0-3.385-3.385H83.019a3.385,3.385,0,0,0-3.385,3.385h0v37.24q0,.027,0,.055l-27.953,0,0-.051V49.508A3.385,3.385,0,0,0,48.3,46.122H42.393a3.385,3.385,0,0,0-3.385,3.385h0v37.24q0,.027,0,.055H6.3A6.207,6.207,0,0,1,.188,79.53L9.175,27.837H5.132A3.1,3.1,0,0,1,2.049,25.1l-.021-.362h0V-9.4A3.1,3.1,0,0,1,4.77-12.486l.362-.021H45.475V-34.23a3.1,3.1,0,0,1,3.1-3.1Z" transform="translate(-0.096 37.333)" fill="#967ca9"/>
    </clipPath>
  </defs>
  <g id="全面清理_点击状态_" data-name="全面清理（点击状态）" transform="translate(0 0)">
    <g id="组_3232" data-name="组 3232" transform="translate(0 0)">
      <g id="组_3231" data-name="组 3231" transform="translate(0 0)" clip-path="url(#clip-path)">
        <path id="路径_2121" data-name="路径 2121" d="M-4.9-42.333H156.951V115.657H-4.9Z" transform="translate(-12.023 25.406)" fill="#967ca9"/>
      </g>
    </g>
    <rect id="矩形_724" data-name="矩形 724" width="47.957" height="7.993" transform="translate(40.02 48.002)" fill="#fff"/>
  </g>
</svg>
