<svg xmlns="http://www.w3.org/2000/svg" xmlns:xlink="http://www.w3.org/1999/xlink" width="128" height="124.134" viewBox="0 0 128 124.134">
  <defs>
    <clipPath id="clip-path">
      <path id="路径_2120" data-name="路径 2120" d="M79.612-37.333h0a3.1,3.1,0,0,1,3.1,3.1h0v21.723h40.344a3.1,3.1,0,0,1,3.1,3.1h0V24.734h0a3.1,3.1,0,0,1-3.1,3.1h-4.047L128,79.53h0a6.207,6.207,0,0,1-6.114,7.271H6.3A6.207,6.207,0,0,1,.188,79.53L9.175,27.837H5.132a3.1,3.1,0,0,1-3.1-3.1h0V-9.4h0a3.1,3.1,0,0,1,3.1-3.1H45.475V-34.23h0a3.1,3.1,0,0,1,3.1-3.1H79.612Zm26.8,65.171H21.778l-8.094,46.55H39.269V49.561h0a3.1,3.1,0,0,1,3.1-3.1h6.207a3.1,3.1,0,0,1,3.1,3.1h0V74.388h27.93V49.561h0a3.1,3.1,0,0,1,3.1-3.1h6.207a3.1,3.1,0,0,1,3.1,3.1h0V74.388h22.481l-8.1-46.55ZM70.3-24.92H57.889V-.093H14.442V15.424h99.308V-.093H70.3V-24.92Z" transform="translate(-0.096 37.333)" fill="#fff"/>
    </clipPath>
  </defs>
  <g id="全面清理_默认状态_" data-name="全面清理（默认状态）" transform="translate(0 0)">
    <g id="组_3228" data-name="组 3228" transform="translate(0 0)" clip-path="url(#clip-path)">
      <path id="路径_2119" data-name="路径 2119" d="M-4.9-42.333H156.951V115.656H-4.9Z" transform="translate(-12.023 25.406)" fill="#fff"/>
    </g>
  </g>
</svg>
