<svg xmlns="http://www.w3.org/2000/svg" xmlns:xlink="http://www.w3.org/1999/xlink" width="116.236" height="128" viewBox="0 0 116.236 128">
  <defs>
    <clipPath id="clip-path">
      <path id="路径_2069" data-name="路径 2069" d="M66.271-7.757c-.574.574-11.474,13.2-27.539,13.2s-26.965-13.2-27.539-13.2a5.544,5.544,0,0,1,.574-8.032c2.295-2.295,5.737-1.721,8.032.574,0,0,8.606,9.753,18.359,9.753s18.359-9.179,18.359-9.753c2.295-2.295,5.737-2.868,8.032-.574s3.442,5.163,1.721,8.032Z" transform="translate(-9.733 17.25)" fill="#fff"/>
    </clipPath>
  </defs>
  <g id="首页128px_点击状态_" data-name="首页128px（点击状态）" transform="translate(-37.333 -144)">
    <path id="路径_2067" data-name="路径 2067" d="M111.091.776,70.408-36.418a16.487,16.487,0,0,0-23.247,0L6.478.776A18.918,18.918,0,0,0,.667,14.143V68.772c0,9.88,7.555,18.016,17.435,18.016H99.467c9.88,0,17.435-8.136,17.435-18.016V14.143A18.918,18.918,0,0,0,111.091.776Z" transform="translate(36.666 185.212)" fill="#967ca9"/>
    <g id="组_3171" data-name="组 3171" transform="translate(66.448 220.173)" clip-path="url(#clip-path)">
      <path id="路径_2068" data-name="路径 2068" d="M4.733-22.25H93.394V31.73H4.733Z" transform="translate(-20.38 6.604)" fill="#fff"/>
    </g>
  </g>
</svg>
