<svg xmlns="http://www.w3.org/2000/svg" xmlns:xlink="http://www.w3.org/1999/xlink" width="123.684" height="128" viewBox="0 0 123.684 128">
  <defs>
    <clipPath id="clip-path">
      <path id="路径_2107" data-name="路径 2107" d="M90.193-3h0c5.289,0,9.577,2.757,9.577,6.157s-4.288,6.157-9.577,6.157H13.577C8.288,9.315,4,6.558,4,3.157S8.288-3,13.577-3Z" transform="translate(-4 3)" fill="#967ca9"/>
    </clipPath>
    <clipPath id="clip-path-2">
      <path id="路径_2111" data-name="路径 2111" d="M79.064,3.522H62.45L56.661,20.83a2.019,2.019,0,0,1-3.524.509L35.013-4.114,32.747,1.74a2.2,2.2,0,0,1-2.266,1.527H11.351A5.4,5.4,0,0,1,6.064-1.06,5.019,5.019,0,0,1,11.1-6.914H25.2l5.79-14.762a2.019,2.019,0,0,1,3.524-.509L52.13,2.249l2.517-7.636a2.423,2.423,0,0,1,2.265-1.782H78.561a5.4,5.4,0,0,1,5.286,4.327c.755,3.818-1.51,6.363-4.783,6.363Z" transform="translate(-6 23)" fill="none"/>
    </clipPath>
  </defs>
  <g id="性能监控128px_点击状态_" data-name="性能监控128px（点击状态）" transform="translate(24095 -4028)">
    <g id="组_3217" data-name="组 3217" transform="translate(-24095 4028)">
      <g id="组_3213" data-name="组 3213" transform="translate(16.417 115.685)" clip-path="url(#clip-path)">
        <path id="路径_2106" data-name="路径 2106" d="M-1-8H134.675V45.363H-1Z" transform="translate(-18.952 -12.524)" fill="#967ca9"/>
      </g>
      <path id="路径_2109" data-name="路径 2109" d="M114.849-30h0a8.809,8.809,0,0,1,8.835,8.784h0V57.838h0a8.809,8.809,0,0,1-8.835,8.784H8.835A8.809,8.809,0,0,1,0,57.838H0V-21.216H0A8.809,8.809,0,0,1,8.835-30Z" transform="translate(0 30)" fill="#967ca9"/>
    </g>
    <g id="组_3215" data-name="组 3215" transform="translate(-24071.76 4055.757)" clip-path="url(#clip-path-2)">
      <path id="路径_2110" data-name="路径 2110" d="M1-28H120.041V58.2H1Z" transform="translate(-21.524 7.476)" fill="#fff"/>
    </g>
  </g>
</svg>
