<svg xmlns="http://www.w3.org/2000/svg" xmlns:xlink="http://www.w3.org/1999/xlink" width="133.684" height="133" viewBox="0 0 133.684 133">
  <defs>
    <clipPath id="clip-path">
      <path id="路径_2107" data-name="路径 2107" d="M90.049-3h0c5.28,0,9.561,2.773,9.561,6.193s-4.281,6.193-9.561,6.193H13.561C8.281,9.385,4,6.613,4,3.193S8.281-3,13.561-3Z" transform="translate(-4 3)" fill="#fff"/>
    </clipPath>
    <clipPath id="clip-path-2">
      <path id="路径_2111" data-name="路径 2111" d="M79.484,3.674H62.775L56.952,21.081a2.031,2.031,0,0,1-3.544.512L35.179-4.006,32.9,1.882a2.215,2.215,0,0,1-2.279,1.536H11.381A5.433,5.433,0,0,1,6.065-.934a5.048,5.048,0,0,1,5.063-5.888H25.306l5.823-14.847a2.031,2.031,0,0,1,3.544-.512L52.395,2.394l2.532-7.68A2.437,2.437,0,0,1,57.2-7.077H78.977a5.433,5.433,0,0,1,5.317,4.352c.76,3.84-1.519,6.4-4.81,6.4Z" transform="translate(-6 23)" fill="none"/>
    </clipPath>
  </defs>
  <g id="性能监控128px_默认状态_" data-name="性能监控128px（默认状态）" transform="translate(-23 -276)">
    <g id="组_3213" data-name="组 3213" transform="translate(44.506 396.615)" clip-path="url(#clip-path)">
      <path id="路径_2106" data-name="路径 2106" d="M-1-8H134.448V45.67H-1Z" transform="translate(-18.919 -12.642)" fill="#fff"/>
    </g>
    <path id="路径_2109" data-name="路径 2109" d="M114.849-30h0a8.8,8.8,0,0,1,8.835,8.767h0V57.674h0a8.8,8.8,0,0,1-8.835,8.767H8.835A8.8,8.8,0,0,1,0,57.674H0V-21.233H0A8.8,8.8,0,0,1,8.835-30Z" transform="translate(28 311)" fill="none" stroke="#fff" stroke-width="10"/>
    <g id="组_3215" data-name="组 3215" transform="translate(51.016 308.669)" clip-path="url(#clip-path-2)">
      <path id="路径_2110" data-name="路径 2110" d="M1-28H120.725V58.7H1Z" transform="translate(-21.642 7.358)" fill="#fff"/>
    </g>
  </g>
</svg>
