<svg xmlns="http://www.w3.org/2000/svg" xmlns:xlink="http://www.w3.org/1999/xlink" width="126.145" height="128" viewBox="0 0 126.145 128">
  <defs>
    <clipPath id="clip-path">
      <path id="路径_2095" data-name="路径 2095" d="M106.937,5.87a8.245,8.245,0,0,0,7.391-4.528L125.477-21.3a8.135,8.135,0,0,0-1.421-9.192L118.2-36.607a8.075,8.075,0,0,0-10.013-1.352L85.662-24.513a8.15,8.15,0,0,0-3.951,6.962V-7.465L67.283,6.362c-4.318-4.719-8.055-8.812-10.039-11,1.556-13.091-.938-22.656-7.42-28.447-9.16-8.178-22.858-5.756-28.323-4.332h0a5.425,5.425,0,0,0-3.886,3.892,5.446,5.446,0,0,0,1.522,5.309l8.982,8.544a9.615,9.615,0,0,1-2.861,6.18A9.6,9.6,0,0,1,19.7-10.78L9.876-20.274A5.416,5.416,0,0,0,4.32-21.5a5.4,5.4,0,0,0-3.6,4.379c-.9,6.489-1.955,22.546,7.843,31.458,5.869,5.342,14.274,6.96,25.006,4.822l.977,1.027c1.89,1.986,4.3,4.523,6.235,6.458L6.119,61.3A19.394,19.394,0,0,0,.412,72.951,14.556,14.556,0,0,0,4.4,84.813a14.333,14.333,0,0,0,10.22,4.072q.815,0,1.642-.082A19.394,19.394,0,0,0,27.918,83.1L64.165,46.851c1.378,1.484,3.112,3.437,4.727,5.507C67.186,66.071,69.7,76,76.362,81.885c4.945,4.365,11.171,5.623,16.7,5.623a44.24,44.24,0,0,0,11.407-1.6,5.431,5.431,0,0,0,2.238-9.228l-8.691-8.05h0a8.809,8.809,0,0,1,2.629-6.144h0a8.81,8.81,0,0,1,5.58-2.51c2.468,2.5,6.593,6.622,8.806,8.572a5.442,5.442,0,0,0,8.9-2.9c3.155-14.03,1.457-24.155-5.045-30.095-8.437-7.709-21.819-5.444-28.264-3.725L80.47,20.763l15.7-15.042,10.768.15Z" transform="translate(-0.161 39.115)" fill="#967ca9"/>
    </clipPath>
  </defs>
  <g id="实用工具128px_点击状态_" data-name="实用工具128px（点击状态）" transform="translate(-351.001 -122)">
    <g id="组_3199" data-name="组 3199" transform="translate(351.001 122)">
      <g id="组_3198" data-name="组 3198" transform="translate(0 0)" clip-path="url(#clip-path)">
        <path id="路径_2094" data-name="路径 2094" d="M-4.839-44.115H154.777V117.356H-4.839Z" transform="translate(-11.896 27.38)" fill="#967ca9"/>
      </g>
    </g>
    <path id="路径_2116" data-name="路径 2116" d="M-23962.359,3698.773l23.2,23.138" transform="translate(24366.5 -3522.506)" fill="#fff" stroke="#fff" stroke-width="8"/>
  </g>
</svg>
