<svg xmlns="http://www.w3.org/2000/svg" xmlns:xlink="http://www.w3.org/1999/xlink" width="126.145" height="128" viewBox="0 0 126.145 128">
  <defs>
    <clipPath id="clip-path">
      <path id="路径_2093" data-name="路径 2093" d="M106.937,5.871a8.245,8.245,0,0,0,7.391-4.528L125.477-21.3a8.135,8.135,0,0,0-1.421-9.192L118.2-36.607a8.075,8.075,0,0,0-10.013-1.352L85.662-24.513a8.15,8.15,0,0,0-3.951,6.962V-7.465L67.283,6.362c-4.318-4.719-8.055-8.812-10.039-11,1.556-13.091-.938-22.656-7.42-28.447-9.16-8.178-22.858-5.756-28.323-4.332h0a5.425,5.425,0,0,0-3.886,3.892,5.446,5.446,0,0,0,1.522,5.308l8.982,8.544a9.615,9.615,0,0,1-2.861,6.18A9.6,9.6,0,0,1,19.7-10.78L9.876-20.274A5.416,5.416,0,0,0,4.32-21.5a5.4,5.4,0,0,0-3.6,4.379c-.9,6.489-1.955,22.546,7.843,31.458,5.869,5.342,14.274,6.96,25.006,4.822l.977,1.027c1.89,1.986,4.3,4.523,6.235,6.458L6.119,61.3A19.394,19.394,0,0,0,.412,72.951,14.556,14.556,0,0,0,4.4,84.813a14.333,14.333,0,0,0,10.22,4.072q.815,0,1.642-.082A19.394,19.394,0,0,0,27.918,83.1L64.164,46.851c1.378,1.484,3.112,3.437,4.727,5.507C67.186,66.072,69.7,76,76.362,81.885c4.945,4.365,11.171,5.623,16.7,5.623a44.241,44.241,0,0,0,11.407-1.595,5.431,5.431,0,0,0,2.238-9.228l-8.691-8.05h0a8.809,8.809,0,0,1,2.629-6.144h0a8.81,8.81,0,0,1,5.58-2.51c2.468,2.5,6.593,6.622,8.806,8.572a5.442,5.442,0,0,0,8.9-2.9c3.155-14.03,1.457-24.155-5.045-30.095-8.437-7.709-21.819-5.444-28.264-3.725L80.47,20.763l15.7-15.042,10.768.15ZM41.185,13.86c-1.248-1.312-2.225-2.334-2.593-2.7a5.4,5.4,0,0,0-5.047-1.392c-8.615,2.045-14.945,1.3-18.813-2.224C11,4.156,9.529-1.907,9.357-8.016l5.12,4.95h0a5.409,5.409,0,0,0,3.711,1.535A18.861,18.861,0,0,0,31.7-6.961,18.732,18.732,0,0,0,37.319-20.4v-.856a5.451,5.451,0,0,0-1.69-3.939l-4.7-4.47c4.24-.253,9.31.315,12.787,3.422,4.336,3.873,5.754,11.3,4.218,22.058A5.379,5.379,0,0,0,49.24.185c1.293,1.448,5.9,6.494,11.418,12.527l-1.8,1.723-2.94-2.94-8.66,8.66c-1.867-1.871-4.313-4.443-6.076-6.3ZM21.434,76.611c-3.325,3.321-8.15,4.1-10.545,1.717a5.511,5.511,0,0,1-1.348-4.457,10.351,10.351,0,0,1,3.065-6.088L55.919,24.468,64.747,33.3ZM85.444,39.762A5.421,5.421,0,0,0,91.1,41.254c1.543-.495,15.282-4.694,21.6,1.08,3.44,3.142,3.972,8.887,3.406,14.559h0q-2.223-2.2-4.415-4.44a5.431,5.431,0,0,0-3.449-1.608,17.92,17.92,0,0,0-14.026,5.107h0a17.975,17.975,0,0,0-5.337,13.941l.05.813a5.4,5.4,0,0,0,1.732,3.623l4.257,3.944c-4.158.266-9.071-.249-12.484-3.262-5.539-4.89-5.37-15.143-4.253-22.891a5.549,5.549,0,0,0-1.023-4.044,91.3,91.3,0,0,0-6.5-7.712L77.721,33.3l-5.055-5.055,1.179-1.13,11.6,12.651ZM90.14-1.2,66.179,21.753l-.83-.83L88.377-1.145A8.147,8.147,0,0,0,90.885-7.01v-9.938l21.278-12.7,4.755,4.962L106.4-3.313,95.859-3.459A7.906,7.906,0,0,0,90.14-1.2Z" transform="translate(-0.161 39.115)" fill="#fff"/>
    </clipPath>
  </defs>
  <g id="实用工具128px_默认状态_" data-name="实用工具128px（默认状态）" transform="translate(-0.161 39.115)">
    <g id="组_3195" data-name="组 3195" transform="translate(0.161 -39.115)" clip-path="url(#clip-path)">
      <path id="路径_2092" data-name="路径 2092" d="M-4.839-44.115H154.777V117.356H-4.839Z" transform="translate(-11.896 27.38)" fill="#fff"/>
    </g>
  </g>
</svg>
